PathFileType	4	(X/Y/Z)	/Users/visionmauri/1_7_1_f_Sports2D/1_7_1_f_Sports2D_px_person00.trc
DataRate	CameraRate	NumFrames	NumMarkers	Units	OrigDataRate	OrigDataStartFrame	OrigNumFrames
30.0	30.0	5	22	m	30.0	291	389
Frame#	Time	Hip			RHip			RKnee			RAnkle			RBigToe			RSmallToe			RHeel			LHip			LKnee			LAnkle			LBigToe			LSmallToe			LHeel			Neck			Head			Nose			RShoulder			RElbow			RWrist			LShoulder			LElbow			LWrist			
		X1	Y1	Z1	X2	Y2	Z2	X3	Y3	Z3	X4	Y4	Z4	X5	Y5	Z5	X6	Y6	Z6	X7	Y7	Z7	X8	Y8	Z8	X9	Y9	Z9	X10	Y10	Z10	X11	Y11	Z11	X12	Y12	Z12	X13	Y13	Z13	X14	Y14	Z14	X15	Y15	Z15	X16	Y16	Z16	X17	Y17	Z17	X18	Y18	Z18	X19	Y19	Z19	X20	Y20	Z20	X21	Y21	Z21	X22	Y22	Z22
291	9.725	608.4683737844975	825.8877236359602	0.0	541.721641764925	845.7973111322768	0.0	544.0357465512275	1079.9224109468103	0.0	574.21202833148	1241.7012922700733	0.0	579.4739661326965	1357.3765143902694	0.0	543.7743337214098	1330.5521912502516	0.0	584.6392458117051	1262.9415111932112	0.0	675.155090218637	842.4283078307025	0.0	672.7845329196341	1047.406547299297	0.0	633.9201714155654	1057.0807016360172	0.0	621.9711953227637	1342.686796515992	0.0	655.7552078781877	1332.2108206929724	0.0	622.093435927992	1038.9874739388695	0.0	632.4045193785149	459.6330353553524	0.0	629.538290438264	282.8850293786728	0.0	615.8106966195594	395.25452696731554	0.0	511.0819059860231	503.1428560060187	0.0	451.1735275759855	663.0420353153646	0.0	383.72883417569807	801.5918780933335	0.0	756.2703565598877	506.4060671164329	0.0	787.1067774551115	664.9062087797719	0.0	793.9477524495272	699.0071327415088	0.0
292	9.758419243986253	610.6583002094408	828.1268199843039	0.0	542.8191755532652	847.5864353790106	0.0	539.0979565862326	1090.215449048964	0.0	575.161138042556	1240.5417972676694	0.0	583.5675187882231	1368.769971748981	0.0	545.9043936086603	1335.848611558495	0.0	584.9159447991804	1259.522126951865	0.0	677.5102104764688	845.4540072756081	0.0	674.5713288091974	1056.164125151022	0.0	633.8739814629799	1142.8044882406823	0.0	608.7111781505905	1414.7618273409767	0.0	653.3439033813426	1403.8538248206428	0.0	623.5286605032534	1126.8631586115093	0.0	636.1657671444555	457.3512551576737	0.0	632.7755456656274	279.62960567718926	0.0	616.2927133910127	392.06914145555373	0.0	513.8496410242979	500.42753136445765	0.0	453.2184225725582	662.931899008537	0.0	385.89684875396455	801.7338478966999	0.0	759.700764826242	506.1529172485209	0.0	789.858272501258	666.8991300850811	0.0	796.4574968672468	708.6839989938477	0.0
293	9.791838487972509	613.3492421296104	829.9748408176981	0.0	544.0027392913266	849.2794210692841	0.0	533.7582460368498	1100.152142176281	0.0	575.7781111203624	1236.4565109024068	0.0	586.6464318489074	1374.1134754447708	0.0	547.5197814093775	1340.726552632955	0.0	584.921183529904	1248.4813162247265	0.0	679.9983464766664	849.1363147340649	0.0	674.7207988408246	1067.583233300363	0.0	633.7979096267982	1259.512145078832	0.0	603.2016397960205	1441.7146398388393	0.0	651.5145605234339	1434.483965266278	0.0	624.0352766431197	1260.265984120874	0.0	639.1758518034768	456.14563901263085	0.0	634.3601665745992	278.31625605184473	0.0	616.8905518538602	390.9066098276913	0.0	515.6346305098558	499.42549929771826	0.0	456.0224499513381	663.0584623211844	0.0	388.22656241548947	801.3804433187519	0.0	763.1975181021893	505.578909970574	0.0	793.7197598361058	667.1782735098038	0.0	800.6678411260746	713.0026862252021	0.0
294	9.825257731958763	615.3713207676238	831.5817729660442	0.0	544.1416326500288	850.1473064109064	0.0	528.1545210601303	1107.3113197869552	0.0	575.1734311342134	1231.903840479795	0.0	586.4162420623305	1371.352273166913	0.0	547.7141544848821	1341.4521874594152	0.0	584.826945347922	1237.3570031430038	0.0	682.5933742066925	851.2050383597026	0.0	674.1912660777268	1076.1567044865208	0.0	635.8348240667965	1339.253794052659	0.0	606.1610331704888	1443.7415116997493	0.0	650.4171174741633	1439.688138494549	0.0	623.6200965669725	1357.0675133413126	0.0	641.4155377705116	456.22948417513413	0.0	634.7689078140573	277.2956312223387	0.0	618.7479592844754	391.2925892777786	0.0	516.2909172953459	499.3192182142573	0.0	458.5562486098585	663.0573166317942	0.0	389.56090226839217	801.0462154432745	0.0	766.6952832780283	504.54050120167557	0.0	799.0662539862063	665.3195603458033	0.0	806.372788161066	712.059136388777	0.0
295	9.858676975945016	616.2289713929385	833.3190628404473	0.0	543.2786032297436	850.2793486092069	0.0	522.6976185627489	1111.6114238141993	0.0	573.0974141173316	1229.9669460824466	0.0	581.8016896520037	1366.201030989371	0.0	545.191828538783	1338.564671722295	0.0	584.7876742736922	1233.6765188775178	0.0	685.0315360531656	851.3558926086312	0.0	672.9493656030537	1081.4533791542901	0.0	637.7222517359411	1359.8363927240289	0.0	609.041639533989	1442.671067133588	0.0	649.9219628786932	1438.8525243012084	0.0	623.2118117305589	1384.8362538077567	0.0	642.8120984830482	456.876121517938	0.0	635.1100435967523	274.9416232107604	0.0	620.9288253769271	391.99101401538627	0.0	516.3800334649611	499.5130588707636	0.0	459.8636268568551	662.612975068629	0.0	389.77980586972524	801.4576924184847	0.0	769.9020000970943	502.83692776802326	0.0	805.0248448413753	662.0936498894106	0.0	812.2362394097737	711.5973023029213	0.0
